<svg xmlns="http://www.w3.org/2000/svg" xmlns:xlink="http://www.w3.org/1999/xlink" fill="none" version="1.1" width="23.564453125" height="14" viewBox="0 0 23.564453125 14"><defs><clipPath id="relay_svg_fsOYBg"><path d="M6 0L17.5643 0C20.8781 0 23.5643 2.68629 23.5643 6L23.5643 8C23.5643 11.3137 20.8781 14 17.5643 14L1 14C0.447715 14 0 13.5523 0 13L0 6C0 2.68629 2.68629 0 6 0Z"/></clipPath></defs><g style="mix-blend-mode:pass-through;opacity: 1;" transform="matrix(1,0,0,1,0,0)"><g clip-path="url(#relay_svg_fsOYBg)"><path d="M6 0L17.5643 0C20.8781 0 23.5643 2.68629 23.5643 6L23.5643 8C23.5643 11.3137 20.8781 14 17.5643 14L1 14C0.447715 14 0 13.5523 0 13L0 6C0 2.68629 2.68629 0 6 0Z" fill-rule="NONZERO" fill="#f33b50" fill-opacity="1" style="mix-blend-mode:normal"/><g style="mix-blend-mode:pass-through;opacity: 1;" transform="matrix(1,0,0,1,0,2.0615234375)"><g style="mix-blend-mode:pass-through;opacity: 1;" transform="matrix(1,0,-0.15643446147441864,0.9876883625984192,3.564453125,0)"><path d="M5.76123 8L4.47803 8L4.47803 5.34131L1.87207 5.34131L1.87207 8L0.588867 8L0.588867 1.60156L1.87207 1.60156L1.87207 4.35254L4.47803 4.35254L4.47803 1.60156L5.76123 1.60156L5.76123 8ZM12.1157 5.37646Q12.1157 6.55859 11.373 7.32544Q10.6304 8.09229 9.43945 8.09229Q8.25293 8.09229 7.51465 7.32324Q6.77637 6.5542 6.77637 5.37646L6.77637 4.2251Q6.77637 3.05176 7.51245 2.28052Q8.24854 1.50928 9.43066 1.50928Q10.6216 1.50928 11.3687 2.28052Q12.1157 3.05176 12.1157 4.2251L12.1157 5.37646ZM10.8369 4.21631Q10.8369 3.46924 10.4634 2.99023Q10.0898 2.51123 9.43066 2.51123Q8.78027 2.51123 8.41772 2.99023Q8.05518 3.46924 8.05518 4.21631L8.05518 5.37646Q8.05518 6.13672 8.41992 6.61572Q8.78467 7.09473 9.43945 7.09473Q10.0986 7.09473 10.4678 6.61572Q10.8369 6.13672 10.8369 5.37646L10.8369 4.21631ZM17.4727 2.59033L15.6445 2.59033L15.6445 8L14.3613 8L14.3613 2.59033L12.5596 2.59033L12.5596 1.60156L17.4727 1.60156L17.4727 2.59033Z" fill-rule="NONZERO" fill="#ffffff" fill-opacity="1" style="mix-blend-mode:normal"/></g></g></g></g></svg>